<svg xmlns="http://www.w3.org/2000/svg" aria-hidden="true" style="position:absolute;width:0;height:0;overflow:hidden">
  <defs>
    <symbol id="icon-cone" viewBox="0 0 32 32">
      <path fill="#ffa99f" d="M19.929 4.865a3.938 3.938 0 1 1-7.876 0 3.938 3.938 0 0 1 7.876 0z"
        style="fill:var(--color1, #ffa99f)" />
      <path fill="#f0efda" d="M15.637 10.24a3.938 3.938 0 1 1-7.876 0 3.938 3.938 0 0 1 7.876 0z"
        style="fill:var(--color2, #f0efda)" />
      <path fill="#85d0bc" d="M24.242 10.24a3.938 3.938 0 1 1-7.876 0 3.938 3.938 0 0 1 7.876 0z"
        style="fill:var(--color3, #85d0bc)" />
      <path fill="#fff"
        d="M17.49 2.427a3.88 3.88 0 0 1 1.938.528l-.019-.01a3.925 3.925 0 0 0-7.356 1.906v.013-.001.01c0 .538.11 1.05.31 1.516l-.01-.025a3.908 3.908 0 0 0-4.6 3.846v.031-.002a3.923 3.923 0 0 0 1.999 3.409l.02.01a3.909 3.909 0 0 1 3.39-5.856h.031-.002c.076 0 .149.011.223.015.1.007.388.045.448.053.469.088.887.244 1.267.46l-.02-.01a4.006 4.006 0 0 0-1.514-1.513l-.02-.01a3.542 3.542 0 0 1-.03-.431v-.003a3.937 3.937 0 0 1 3.937-3.937h.008z"
        opacity=".5" style="fill:var(--color4, #fff)" />
      <path fill="#fff"
        d="M17.866 11.739v-.025a3.911 3.911 0 0 1 5.876-3.384l-.019-.01a3.932 3.932 0 0 0-3.433-2.021 3.926 3.926 0 0 0-1.925 7.348l.02.01a3.86 3.86 0 0 1-.519-1.918v-.001z"
        opacity=".35" style="fill:var(--color4, #fff)" />
      <path fill="#f9cb99" d="M23.116 13.552H8.865l7.033 17.946zM23.595 13.552H8.376l-1.277-1.96h17.8z"
        style="fill:var(--color5, #f9cb99)" />
      <path fill="#282b24"
        d="M8.099 11.093h15.805v1H8.099v-1zM15.899 31.997a.537.537 0 0 1-.465-.312l-.001-.003-7.031-17.947a.5.5 0 0 1 .929-.367l.001.003 6.572 16.775 6.737-16.754.94.343-.2.5-7.014 17.44a.508.508 0 0 1-.469.322z"
        style="fill:var(--color6, #282b24)" />
      <path fill="#282b24"
        d="m24.891 11.741-.955-.3a3.8 3.8 0 1 0-7.373-.444l-.003-.023c.032.183.071.341.12.494l-.007-.026-.956.294a4.824 4.824 0 0 1-.013-2.815l-.009.034c.59-1.991 2.393-3.424 4.533-3.448h.068a4.808 4.808 0 0 1 4.584 6.264l.009-.034z"
        style="fill:var(--color6, #282b24)" />
      <path fill="#282b24"
        d="m20.612 6.154-.96-.279a3.75 3.75 0 0 0 .153-1.072 3.8 3.8 0 1 0-7.446 1.099l-.007-.027-.96.279a4.8 4.8 0 1 1 9.211.034l.009-.034z"
        style="fill:var(--color6, #282b24)" />
      <path fill="#282b24"
        d="M7.113 11.742a4.8 4.8 0 1 1 9.388-1.431v.004c0 .295-.026.585-.076.866l.004-.03a4.938 4.938 0 0 1-.152.625l.01-.036-.956-.294c.108-.339.17-.729.17-1.134a3.801 3.801 0 0 0-3.741-3.8h-.063a3.8 3.8 0 0 0-3.62 4.958l-.007-.027z"
        style="fill:var(--color6, #282b24)" />
      <path fill="#282b24"
        d="M23.596 14.052H8.376a.5.5 0 0 1-.418-.225l-.001-.002-1.276-1.959a.5.5 0 0 1 .419-.773h17.8a.5.5 0 0 1 .415.779l.001-.002-1.307 1.96a.5.5 0 0 1-.413.222zm-14.949-1h14.677l.64-.959H8.024z"
        style="fill:var(--color6, #282b24)" />
      <path fill="#282b24"
        d="M15.898 32a.5.5 0 0 1-.461-.314l-.001-.003-7.034-17.947a.5.5 0 0 1 .466-.682h4.6c.211 0 .391.131.465.316l.001.003 4.755 12.185a.498.498 0 0 1-.001.371l.001-.003-2.32 5.763a.502.502 0 0 1-.463.311h-.008zm-6.3-17.946 6.306 16.092 1.776-4.412-4.556-11.682z"
        style="fill:var(--color6, #282b24)" />
      <path fill="#282b24"
        d="M18.211 26.231a.568.568 0 0 1-.464-.315l-.001-.003-4.745-12.173a.5.5 0 0 1 .466-.681l4.636-.007a.5.5 0 0 1 .465.315l.001.003 2.471 6.318a.498.498 0 0 1-.001.372l.001-.003-2.364 5.861a.501.501 0 0 1-.464.313h-.001zm-4.013-12.173 4.021 10.317 1.818-4.508-2.274-5.814z"
        style="fill:var(--color6, #282b24)" />
      <path fill="#282b24"
        d="M20.575 20.37a.442.442 0 0 1-.465-.315l-.001-.003-2.471-6.317a.5.5 0 0 1 .466-.682h4.612a.5.5 0 0 1 .464.313l.001.003.2.5a.484.484 0 0 1-.001.374l.001-.003-2.339 5.816a.5.5 0 0 1-.464.314h-.003zm-1.739-6.317 1.746 4.461 1.794-4.461z"
        style="fill:var(--color6, #282b24)" />
      <path fill="#282b24"
        d="M15.897 32a.502.502 0 0 1-.462-.314l-.001-.003-2.192-5.6a.484.484 0 0 1 .002-.367l-.001.003 4.822-12.353a.5.5 0 0 1 .465-.318h4.589a.5.5 0 0 1 .462.69l.001-.003-7.219 17.948a.501.501 0 0 1-.465.317h-.001zm-1.654-6.1 1.66 4.24 6.473-16.093h-3.507z"
        style="fill:var(--color6, #282b24)" />
      <path fill="#282b24"
        d="M13.706 26.406h-.001a.5.5 0 0 1-.464-.314l-.001-.003-2.328-5.941a.489.489 0 0 1 .002-.369l-.001.003 2.506-6.411a.501.501 0 0 1 .464-.317l4.637-.018a.5.5 0 0 1 .465.684l.001-.003-4.815 12.369a.5.5 0 0 1-.465.319zm-1.791-6.441 1.789 4.567 4.084-10.492-3.562.013z"
        style="fill:var(--color6, #282b24)" />
      <path fill="#282b24"
        d="M11.377 20.465a.5.5 0 0 1-.464-.315l-.001-.003-2.309-5.9a.498.498 0 0 1 .001-.371l-.001.003.209-.519a.5.5 0 0 1 .464-.314l4.6.018a.5.5 0 0 1 .462.685l.001-.003-2.5 6.4a.5.5 0 0 1-.466.318zm-1.772-6.394 1.772 4.522 1.769-4.528-3.532-.013z"
        style="fill:var(--color6, #282b24)" />
    </symbol>
    <symbol id="icon-popsicle" viewBox="0 0 32 32">
      <path fill="#f9cb99" d="M17.011 23.469v7.01a1.02 1.02 0 1 1-2.042 0v-7.01z" style="fill:var(--color5, #f9cb99)" />
      <path fill="#282b24"
        d="M15.99 32a1.522 1.522 0 0 1-1.521-1.521v-7.01a.5.5 0 0 1 1 0v7.01a.52.52 0 1 0 1.042 0v-7.01a.5.5 0 0 1 1 0v7.01A1.522 1.522 0 0 1 15.99 32z"
        style="fill:var(--color6, #282b24)" />
      <path fill="#85d0bc" d="M16.001.5a6.6 6.6 0 0 0-6.6 6.6v16.334h13.2V7.1a6.6 6.6 0 0 0-6.6-6.6z"
        style="fill:var(--color3, #85d0bc)" />
      <path fill="#fff"
        d="M10.9 8.606v-.007a6.594 6.594 0 0 1 10.473-5.333l-.019-.013A6.601 6.601 0 0 0 9.4 7.105v16.334h1.5z"
        opacity=".35" style="fill:var(--color4, #fff)" />
      <path fill="#282b24"
        d="M22.603 23.935h-13.2a.5.5 0 0 1-.5-.5V7.106a7.1 7.1 0 0 1 14.2 0V23.44a.5.5 0 0 1-.5.495zm-12.7-1h12.2V7.106a6.1 6.1 0 1 0-12.2 0z"
        style="fill:var(--color6, #282b24)" />
      <path fill="#282b24"
        d="M13.645 6.217a.5.5 0 0 1 .5.5v12.952a.5.5 0 0 1-1 0V6.717a.5.5 0 0 1 .5-.5zM18.336 6.217a.5.5 0 0 1 .5.5v12.952a.5.5 0 0 1-1 0V6.717a.5.5 0 0 1 .5-.5z"
        style="fill:var(--color6, #282b24)" />
    </symbol>
    <symbol id="icon-ice-cream" viewBox="0 0 32 32">
      <path fill="#f7c48d"
        d="M14.811 31.437h2.336c.914 0 1.702-.643 1.886-1.538l2.22-10.809H10.706l2.22 10.809a1.925 1.925 0 0 0 1.886 1.538z"
        style="fill:var(--color1, #f7c48d)" />
      <path fill="#ebb886"
        d="M10.67 19.088 12.891 29.9c.13.628.555 1.132 1.115 1.374.237.107.498.163.772.163h2.396c.211 0 .42-.034.611-.101A1.913 1.913 0 0 0 19.06 29.9l2.221-10.812h-1.915l-1.794 10.098a1.209 1.209 0 0 1-1.191.998h-.813a1.21 1.21 0 0 1-1.191-.998l-1.794-10.098h-1.914z"
        style="fill:var(--color2, #ebb886)" />
      <path fill="#f6c484"
        d="M10.811 19.089h10.311c.456 0 .84-.343.89-.797l.427-3.837a.24.24 0 0 0-.238-.266H9.755a.24.24 0 0 0-.238.265l.404 3.833a.895.895 0 0 0 .891.802z"
        style="fill:var(--color3, #f6c484)" />
      <path fill="#e9b47a"
        d="m9.484 14.456.428 3.835a.894.894 0 0 0 .89.797h1.717l-.193-2.021a1.031 1.031 0 0 1 1.027-1.13h5.245c.609 0 1.085.524 1.027 1.13l-.193 2.021h1.717a.896.896 0 0 0 .89-.796l.428-3.836a.242.242 0 0 0-.239-.268H9.724c-.017 0-.036.003-.051.005a.242.242 0 0 0-.188.262z"
        style="fill:var(--color4, #e9b47a)" />
      <path
        d="m9.36 18.346-.404-3.833a.803.803 0 0 1 .798-.887H22.2a.804.804 0 0 1 .798.892l-.427 3.837a1.458 1.458 0 0 1-1.45 1.298H10.81a1.457 1.457 0 0 1-1.451-1.306zm.754-3.594.366 3.476c.018.17.16.298.331.298h10.311c.17 0 .312-.127.331-.296l.387-3.478H10.114zM20.579 22.629h-6.574a.608.608 0 1 1 0-1.216h6.574a.608.608 0 1 1 0 1.216zM17.293 25.871h-2.635a.608.608 0 1 1 0-1.216h2.635a.608.608 0 1 1 0 1.216zM16.728 29.113h-3.939a.608.608 0 1 1 0-1.216h3.939a.608.608 0 1 1 0 1.216zM11.858 22.629h-.551a.608.608 0 1 1 0-1.216h.551a.608.608 0 1 1 0 1.216zM19.289 29.257h-.579a.608.608 0 1 1 0-1.216h.579a.608.608 0 1 1 0 1.216zM12.492 25.871h-.519a.608.608 0 1 1 0-1.216h.519a.608.608 0 1 1 0 1.216zM19.985 25.871h-.571a.608.608 0 1 1 0-1.216h.571a.608.608 0 1 1 0 1.216z"
        style="fill:var(--color5, #000)" />
      <path fill="#ec6f93"
        d="M8.292 13.057c0 .313.127.597.332.8.206.206.487.332.8.332h1.999a1 1 0 0 1 .999.999c0 .54.36 1.039.889 1.148.393.081.768-.054 1.02-.303.203-.203.327-.482.327-.791v-.053a1 1 0 0 1 .999-.999h6.87c.543 0 1.043-.361 1.155-.893a1.125 1.125 0 0 0-.307-1.036 1.12 1.12 0 0 0-.8-.332h-.158a4.24 4.24 0 0 0-2.287-6.208c.065-.286.099-.583.101-.888.017-2.016-1.323-3.748-3.295-4.17a4.24 4.24 0 0 0-5.074 5.04 4.234 4.234 0 0 0-2.94 4.032c0 .802.223 1.551.608 2.193h-.109c-.625 0-1.132.507-1.132 1.129z"
        style="fill:var(--color6, #ec6f93)" />
      <path fill="#d5618d"
        d="M8.32 13.057c0 .313.127.597.332.8.206.206.487.332.8.332h.676v.031h1.481c.487 0 .884.394.884.884v.13a1.126 1.126 0 0 0 1.914.802c.202-.2.332-.479.335-.786l.003-.161c.008-.482.4-.87.884-.87h5.327v-.031h1.591c.313 0 .594-.127.8-.332a1.132 1.132 0 0 0-.8-1.929h-.11a4.24 4.24 0 0 0 .608-2.193 4.233 4.233 0 0 0-2.94-4.032 4.237 4.237 0 0 0-3.043-5 4.372 4.372 0 0 0-1.036-.141h-.053a4.265 4.265 0 0 0-1.036.141 4.237 4.237 0 0 0-3.044 5 4.234 4.234 0 0 0-2.94 4.032c0 .802.223 1.551.608 2.193h-.109c-.625 0-1.132.507-1.132 1.129zm4.584-1.104c-1.018 0-1.844-.847-1.796-1.864.086-1.844.861-3.22 1.342-4.094.31-.569.58-1.335 1.039-2.089 1.143-1.881 3.874-1.881 5.02 0 .459.755.729 1.52 1.039 2.089.481.873 1.255 2.25 1.342 4.094.048 1.017-.777 1.864-1.796 1.864h-6.19z"
        style="fill:var(--color7, #d5618d)" />
      <path fill="#f3b346"
        d="M16.026.561c.358.005.704.053 1.036.141a.312.312 0 0 0-.099-.04 4.477 4.477 0 0 0-.938-.101zM14.937.702a4.372 4.372 0 0 1 1.036-.141c-.307 0-.619.034-.938.101a.286.286 0 0 0-.098.04z"
        style="fill:var(--color8, #f3b346)" />
      <path
        d="M10.824 6.916c.013-.011.105-.099.27-.214a3.59 3.59 0 0 0-.397.307.498.498 0 0 0 .127-.093zM11.402 6.514zM22.576 12.535h-.524a.608.608 0 1 1 0-1.216h.524a.608.608 0 1 1 0 1.216zM9.922 12.535h-.499a.608.608 0 1 1 0-1.216h.499a.608.608 0 1 1 0 1.216z"
        style="fill:var(--color5, #000)" />
      <path
        d="M7.73 13.057c0 .456.177.881.498 1.199.318.318.743.496 1.197.496h1.999c.239 0 .436.194.436.436 0 .825.56 1.54 1.337 1.701a1.697 1.697 0 0 0 1.529-.453c.321-.321.496-.743.496-1.194v-.053c0-.242.194-.436.434-.436h6.87c.828 0 1.543-.563 1.706-1.34a1.675 1.675 0 0 0-.462-1.551 1.688 1.688 0 0 0-.518-.358c.223-.56.338-1.16.338-1.768a4.785 4.785 0 0 0-2.827-4.373c.02-.175.031-.349.031-.527.02-2.306-1.517-4.248-3.739-4.724a4.838 4.838 0 0 0-4.071.952 4.779 4.779 0 0 0-1.748 4.277 4.78 4.78 0 0 0-2.872 4.395c0 .617.116 1.222.344 1.791a1.686 1.686 0 0 0-.977 1.531zm1.126 0c0-.313.253-.566.569-.566h.11a.564.564 0 0 0 .497-.826c-.111-.212-.243-.414-.321-.64-.531-1.537-.065-3.069.987-4.016.211-.192.448-.36.704-.496a3.55 3.55 0 0 1 1.537-.413c.284-.012.535-.229.559-.513a.56.56 0 0 0-.581-.612 5.909 5.909 0 0 0-.309.022l-.276-.259a3.655 3.655 0 0 1 1.362-2.802 3.711 3.711 0 0 1 3.128-.726c1.692.363 2.864 1.85 2.847 3.615 0 .265-.031.524-.087.769a.567.567 0 0 0 .375.659c1.9.632 3.016 2.709 2.28 4.783-.077.216-.196.413-.308.613a.57.57 0 0 0-.001.556.567.567 0 0 0 .493.284h.158c.152 0 .293.059.397.163a.574.574 0 0 1 .158.527c-.053.254-.313.445-.605.445h-6.867c-.863 0-1.563.7-1.563 1.563v.053a.556.556 0 0 1-.67.543c-.251-.053-.439-.31-.439-.597 0-.862-.701-1.563-1.563-1.563H9.428a.567.567 0 0 1-.569-.569z"
        style="fill:var(--color5, #000)" />
      <path fill="#e9b47a" d="M9.673 14.189v.005a.267.267 0 0 1 .051-.005h-.051z" style="fill:var(--color4, #e9b47a)" />
      <path fill="#ebb886"
        d="M16.899 30.75h.66v-.109a1.991 1.991 0 0 1-.66.109zM13.479 30.574v.176h.833c-.295 0-.578-.061-.833-.176z"
        style="fill:var(--color2, #ebb886)" />
      <path
        d="m12.373 30.012-2.22-10.809a.562.562 0 0 1 .551-.676h10.547a.563.563 0 0 1 .551.676l-2.22 10.809A2.498 2.498 0 0 1 17.144 32h-2.336c-1.175 0-2.2-.836-2.437-1.988zm-.977-10.36 2.081 10.133c.13.631.691 1.088 1.334 1.088h2.336c.644 0 1.205-.458 1.334-1.088l2.081-10.133h-9.166zM19.834 12.562h-4.099a.608.608 0 1 1 0-1.216h4.099a.608.608 0 1 1 0 1.216z"
        style="fill:var(--color5, #000)" />
    </symbol>
  </defs>
</svg>